<svg width="136" height="145" viewBox="0 0 136 145" fill="none" xmlns="http://www.w3.org/2000/svg">
<path fill-rule="evenodd" clip-rule="evenodd" d="M20.8345 12.372C22.5772 5.49141 28.8106 0.400391 36.2328 0.400391C41.8001 0.400391 46.6986 3.26484 49.5348 7.60039H54.1791C57.0644 4.63928 61.0955 2.80039 65.5565 2.80039C72.0966 2.80039 77.7138 6.75332 80.1488 12.4004H84.0371C86.4736 10.8793 89.3525 10.0004 92.4364 10.0004C98.9768 10.0004 104.594 13.9533 107.029 19.6004H117.602C117.693 19.6004 117.777 19.6247 117.85 19.6672C118.333 19.623 118.822 19.6004 119.316 19.6004C128.089 19.6004 135.2 26.7117 135.2 35.4841V83.1121L135.2 83.2004L135.2 83.2887V83.9747C135.2 84.2652 135.192 84.5546 135.176 84.8426C134.221 117.883 104.511 144.4 68 144.4C30.8865 144.4 0.800049 117 0.800049 83.2004C0.800049 66.8854 7.81018 52.0612 19.237 41.0902C19.2085 56.9958 19.4771 73.4393 20.7156 73.1572C24.0316 72.4012 21.4407 23.1365 20.8345 12.372Z" fill="#CE416B"/>
</svg>
