<svg width="108" height="145" viewBox="0 0 108 145" fill="none" xmlns="http://www.w3.org/2000/svg">
<path fill-rule="evenodd" clip-rule="evenodd" d="M81.1207 111.605C82.8999 105.099 79.4464 91.7251 79.4464 91.7251C79.4464 91.7251 76.9416 102.62 73.0277 106.647C69.6887 110.082 65.5979 112.465 59.7311 113.091C64.5278 110.761 67.8266 105.903 67.8266 100.288C67.8266 92.4054 61.3263 86.0154 53.3079 86.0154C45.2894 86.0154 38.7889 92.4054 38.7889 100.288C38.7889 102.44 39.2741 104.482 40.1423 106.312C35.127 102.317 34.3384 95.9112 34.3384 95.9112C34.3384 95.9112 28.7382 119.162 44.1692 130.099C59.6 141.037 89.8285 131.636 89.8285 131.636C89.8285 131.636 46.5697 162.073 14.5145 128.946C-13.0984 100.408 7.30751 62.8387 7.30751 62.8387C7.30751 62.8387 6.42624 66.324 6.42624 70.3698C6.42624 74.4155 8.61979 77.4938 8.61979 77.4938C8.61979 77.4938 15.1631 63.7016 20.2554 58.0926C25.0749 52.7843 31.1164 48.479 36.3347 44.7603C40.3515 41.8977 43.8807 39.3828 45.9884 37.0256C57.5975 24.0447 50.4794 0.400391 50.4794 0.400391C50.4794 0.400391 63.5659 11.9373 67.2194 26.8373C68.6121 32.5169 67.716 38.9792 66.915 44.758C65.6145 54.1394 64.5635 61.7199 73.9587 61.228C89.1411 60.4329 75.948 37.0256 75.948 37.0256C75.948 37.0256 110.388 55.1269 107.815 86.7849C105.242 118.443 70.1705 125.64 70.1705 125.64C70.1705 125.64 79.3412 118.111 81.1207 111.605Z" fill="#FF9D55"/>
</svg>
