<svg width="144" height="145" viewBox="0 0 144 145" fill="none" xmlns="http://www.w3.org/2000/svg">
<path fill-rule="evenodd" clip-rule="evenodd" d="M64.6095 127.764C67.3452 128.183 70.1471 128.4 73.0001 128.4C103.376 128.4 128 103.776 128 73.4005C128 43.0247 103.376 18.4004 73.0001 18.4004C70.9621 18.4004 68.9498 18.5112 66.9695 18.7272C82.0375 30.1429 91.9999 49.9178 91.9999 72.4004C91.9999 96.0366 80.9887 116.68 64.6095 127.764ZM71.9999 144.4C111.764 144.4 144 112.165 144 72.4004C144 32.6359 111.764 0.400391 71.9999 0.400391C32.2354 0.400391 0 32.6359 0 72.4004C0 112.165 32.2354 144.4 71.9999 144.4Z" fill="#5A5465"/>
</svg>
