<svg width="130" height="139" viewBox="0 0 130 139" fill="none" xmlns="http://www.w3.org/2000/svg">
<path fill-rule="evenodd" clip-rule="evenodd" d="M21.4434 121.044C20.9491 120.579 20.4603 120.105 19.9772 119.622C-5.52787 94.117 -5.52787 52.7651 19.9772 27.2602C45.4821 1.75509 126.751 0.0488281 126.751 0.0488281C126.751 0.0488281 137.844 94.117 112.339 119.622C89.6872 142.274 54.5361 144.808 29.0877 127.224L49.5931 102.061L82.3728 94.9835L55.6149 92.3086L72.6199 74.9942L91.9766 70.7538L76.6704 66.2209L91.9766 38.6089L70.2051 63.0293L61.7977 51.1653L64.7573 70.7538L49.5931 87.8488L42.5638 66.2207V94.9835L21.4434 121.044Z" fill="#63BC5A"/>
</svg>
