<svg width="126" height="145" viewBox="0 0 126 145" fill="none" xmlns="http://www.w3.org/2000/svg">
<path fill-rule="evenodd" clip-rule="evenodd" d="M69.9855 72.0857C70.9615 71.4905 71.7895 70.2435 72.4571 68.8575C81.2448 72.449 87.4202 80.936 87.4202 90.8335C87.4202 103.982 76.5218 114.641 63.078 114.641C57.5593 114.641 52.4696 112.845 48.3867 109.818C47.0473 109.183 45.9454 108.574 45.0437 108.076C43.6451 107.302 42.7279 106.795 42.1536 106.875C40.4748 107.106 40.9622 108.651 41.4052 110.054C41.7058 111.007 41.9862 111.895 41.5523 112.261C41.0983 112.645 39.628 111.243 37.9098 109.605C35.5709 107.375 32.7731 104.707 31.4537 105.508C30.4106 106.142 31.4233 107.861 32.6631 109.964L32.7551 110.121C33.2787 111.01 33.8857 111.915 34.4395 112.742C35.5653 114.421 36.4721 115.774 36.0184 116.003C35.47 116.28 31.6489 113.701 28.4289 110.121C27.186 108.739 25.9823 107.241 24.8635 105.849V105.849C22.4146 102.802 20.3744 100.263 19.2292 100.564C17.8515 100.926 18.8937 103.767 20.4251 106.502C21.1411 107.781 21.9835 109.083 22.7127 110.211V110.211C23.847 111.964 24.7079 113.295 24.3957 113.458C23.9744 113.679 20.2673 110.064 17.7494 105.508C16.2538 102.802 14.998 99.8121 13.9814 97.3914C12.8788 94.766 12.0576 92.8104 11.5168 92.6135C9.63785 91.9298 9.63785 95.7607 10.3914 101.29C10.4897 102.011 10.6361 102.768 10.8164 103.538C18.1244 127.184 40.5741 144.4 67.1351 144.4C99.6242 144.4 125.962 118.641 125.962 86.8656C125.962 56.6223 102.103 31.8292 71.7906 29.5081C71.8288 28.0834 72.5725 25.2581 72.5725 25.2581C72.5725 25.2581 77.9238 12.3105 78.2067 9.5438C78.2253 9.36017 78.2475 9.16062 78.2714 8.94811C78.6047 5.95871 79.2249 0.400391 74.4431 0.400391C71.8893 0.400391 70.7019 2.30013 69.3437 4.47286V4.47289C68.8223 5.30699 68.2755 6.18134 67.6168 7.00386C62.8727 12.9283 54.8953 20.3266 50.372 24.2681C40.8112 32.599 31.4309 39.4458 25.9601 43.439L25.9598 43.4392C23.4716 45.2553 21.7922 46.4812 21.2725 46.9878C17.3558 50.806 3.31234 76.1371 3.31234 76.1371C3.31234 76.1371 -1.22914 84.2641 0.385095 85.9125C1.99933 87.5606 5.89205 87.1829 5.89205 87.1829C5.89205 87.1829 58.1879 75.1856 62.8699 74.2395C64.1305 73.9847 65.0203 73.8376 65.7035 73.7248C67.5583 73.4185 67.8913 73.3634 69.9855 72.0857ZM33.0104 56.6684C30.2033 59.3366 25.5477 65.7055 25.5477 65.7055C25.5477 65.7055 34.2001 66.2385 38.9653 61.709C43.7308 57.1791 42.639 49.4597 42.639 49.4597C42.639 49.4597 35.8173 54.0002 33.0104 56.6684Z" fill="#0B6DC3"/>
</svg>
