<svg width="142" height="123" viewBox="0 0 142 123" fill="none" xmlns="http://www.w3.org/2000/svg">
<path fill-rule="evenodd" clip-rule="evenodd" d="M107.085 0.380859L107.528 39.2919L73.5899 55.5838L73.1714 18.8444L107.085 0.380859Z" fill="#73CEC0"/>
<path fill-rule="evenodd" clip-rule="evenodd" d="M141.107 61.695L107.51 80.912L73.8936 61.6646L107.493 44.0156L141.107 61.695Z" fill="#73CEC0"/>
<path fill-rule="evenodd" clip-rule="evenodd" d="M67.9176 61.695L34.3209 80.912L0.704102 61.6646L34.3035 44.0156L67.9176 61.695Z" fill="#73CEC0"/>
<path fill-rule="evenodd" clip-rule="evenodd" d="M33.9434 0.220703L68.8144 17.4911L67.9229 55.1268L34.998 38.8205L33.9434 0.220703Z" fill="#73CEC0"/>
<path fill-rule="evenodd" clip-rule="evenodd" d="M108.034 122.578L73.1633 105.308L74.0549 67.6719L106.98 83.9785L108.034 122.578Z" fill="#73CEC0"/>
<path fill-rule="evenodd" clip-rule="evenodd" d="M35.1476 122.929L34.7043 84.0185L68.6431 67.7266L69.0616 104.466L35.1476 122.929Z" fill="#73CEC0"/>
</svg>
