<svg width="144" height="145" viewBox="0 0 144 145" fill="none" xmlns="http://www.w3.org/2000/svg">
<path fill-rule="evenodd" clip-rule="evenodd" d="M103.768 143.902C90.7788 144.567 75.9082 144.567 70.8547 143.902C31.4353 138.716 0 109.895 0 70.9379C0 31.9811 32.2355 0.400391 72 0.400391C111.765 0.400391 144 31.9811 144 70.9379C144 89.0563 137.027 105.579 125.567 118.072C122.455 121.464 126.725 123.843 131.063 126.261C135.318 128.632 139.638 131.04 137.127 134.476C134.36 138.262 119.36 143.104 103.768 143.902ZM61.875 62.1207C61.875 68.2075 56.8381 73.142 50.625 73.142C44.4119 73.142 39.375 68.2075 39.375 62.1207C39.375 58.0384 41.6405 54.4746 45.0068 52.5697C45.2005 57.8772 49.5644 62.1204 54.9194 62.1204H61.875V62.1207ZM96.7433 52.5697C96.5495 57.8772 92.1856 62.1204 86.8306 62.1204H79.875V62.1207C79.875 68.2075 84.9119 73.142 91.125 73.142C97.3381 73.142 102.375 68.2075 102.375 62.1207C102.375 58.0384 100.11 54.4746 96.7433 52.5697Z" fill="#5269AD"/>
</svg>
