<svg width="124" height="145" viewBox="0 0 124 145" fill="none" xmlns="http://www.w3.org/2000/svg">
<path fill-rule="evenodd" clip-rule="evenodd" d="M86.2144 0.542352C86.3193 0.392807 86.5252 0.356463 86.6748 0.461176L96.8993 7.62055C97.049 7.72526 97.0853 7.93136 96.9806 8.0809L82.7497 28.4047C89.6681 30.6149 94.3816 32.9991 94.3816 32.9991C94.3816 32.9991 82.8605 52.8165 63.3195 52.8165C43.7785 52.8165 29.8929 34.3463 29.8929 34.3463C29.8929 34.3463 34.8165 31.2041 42.1149 28.5092L26.5056 9.90694C26.3883 9.76708 26.4066 9.55859 26.5463 9.44125L36.108 1.41799C36.2481 1.30064 36.4565 1.31888 36.5738 1.45873L56.3378 25.0125C58.03 24.8211 59.7541 24.7141 61.4939 24.7141C63.9945 24.7141 66.492 24.9042 68.9302 25.2268L86.2144 0.542352ZM90.0804 53.7551C95.2951 50.0307 103.186 40.3102 103.186 40.3102C103.186 40.3102 123.341 56.2824 123.341 90.1494C123.341 124.016 88.4956 144.399 88.4956 144.399C88.4956 144.399 71.847 127.586 67.7599 106.272C63.673 84.9589 73.8056 61.2928 73.8056 61.2928C73.8056 61.2928 84.8655 57.4794 90.0804 53.7551V53.7551ZM33.9196 53.7551C28.7049 50.0307 20.8142 40.3102 20.8142 40.3102C20.8142 40.3102 0.658691 56.2824 0.658691 90.1494C0.658691 124.016 35.5044 144.399 35.5044 144.399C35.5044 144.399 52.153 127.586 56.2402 106.272C60.327 84.9589 50.1944 61.2928 50.1944 61.2928C50.1944 61.2928 39.1345 57.4794 33.9196 53.7551V53.7551Z" fill="#91C12F"/>
</svg>
