<svg width="144" height="145" viewBox="0 0 144 145" fill="none" xmlns="http://www.w3.org/2000/svg">
<path fill-rule="evenodd" clip-rule="evenodd" d="M120.325 111.058C134.866 99.4308 144 82.6311 144 63.9488C144 28.8519 111.765 0.400391 72 0.400391C32.2355 0.400391 0 28.8519 0 63.9488C0 81.9567 8.48635 98.2152 22.1218 109.779C21.2954 112.632 20.8421 115.736 20.8421 118.981C20.8421 133.02 29.3251 144.4 39.7896 144.4C46.5891 144.4 52.5521 139.595 55.8948 132.378C59.2374 139.595 65.2005 144.4 72 144.4C78.1982 144.4 83.7011 140.408 87.158 134.235C90.6148 140.408 96.1178 144.4 102.316 144.4C112.78 144.4 121.263 133.02 121.263 118.981C121.263 116.215 120.934 113.551 120.325 111.058ZM113.684 65.2091C113.684 83.0274 94.5973 97.4721 71.0528 97.4721C47.5079 97.4721 28.4212 83.0274 28.4212 65.2091C28.4212 47.3908 47.5079 32.9461 71.0528 32.9461C94.5973 32.9461 113.684 47.3908 113.684 65.2091Z" fill="#B567CE"/>
</svg>
