<svg width="144" height="125" viewBox="0 0 144 125" fill="none" xmlns="http://www.w3.org/2000/svg">
<path fill-rule="evenodd" clip-rule="evenodd" d="M0.0143749 62.4881C-0.00478254 62.4554 -0.00479216 62.4149 0.0143493 62.382L36.2236 0.516678C36.2424 0.484587 36.277 0.464844 36.3142 0.464844H108.083C108.12 0.464844 108.155 0.484757 108.174 0.517129L143.986 62.3826C144.004 62.4149 144.004 62.4552 143.986 62.4875L108.174 124.283C108.155 124.316 108.12 124.336 108.083 124.336H36.3142C36.277 124.336 36.2424 124.316 36.2236 124.284L0.0143749 62.4881ZM105.361 62.4003C105.361 80.8188 90.4297 95.7501 72.0112 95.7501C53.5927 95.7501 38.6615 80.8188 38.6615 62.4003C38.6615 43.9815 53.5927 29.0505 72.0112 29.0505C90.4297 29.0505 105.361 43.9815 105.361 62.4003Z" fill="#5A8EA2"/>
</svg>
