<svg width="134" height="145" viewBox="0 0 134 145" fill="none" xmlns="http://www.w3.org/2000/svg">
<path fill-rule="evenodd" clip-rule="evenodd" d="M123.309 119.991C123.309 119.991 105.151 134.554 69.0187 128.528C41.6053 123.955 26.9842 93.7362 26.9842 77.4929C26.9842 38.9814 55.4878 30.2173 74.7582 30.2173C94.0283 30.2173 106.599 49.0048 106.599 63.5511C106.599 78.0973 96.3112 90.8205 80.3005 90.8205C64.2901 90.8205 59.5482 79.5804 59.5482 69.2464C59.5482 58.9127 67.9089 55.2719 75.5339 55.2719C83.1588 55.2719 85.7697 61.7817 85.7697 67.3766C85.7697 72.9718 81.4286 74.9754 77.8078 74.9754C74.187 74.9754 73.8289 73.1487 72.4432 71.2289C71.0572 69.3094 74.2106 62.043 69.0187 62.043C63.8269 62.043 62.8591 70.3964 62.8591 70.3964C62.8591 70.3964 64.7519 86.5213 80.3005 86.2432C95.8494 85.9647 103.226 73.9441 101.082 62.043C98.9384 50.1416 87.3883 37.4952 67.1175 40.0507C46.8467 42.6061 38.5703 63.0879 42.2184 84.9758C45.8665 106.864 72.0883 119.546 92.7053 114.984C113.323 110.421 133.857 95.4949 133.857 57.6519C133.857 19.8085 101.082 -2.93872 62.001 0.810149C22.9199 4.55901 -1.3399 38.7263 0.212942 79.7789C1.76578 120.832 40.7199 143.19 73.6596 144.342C106.599 145.495 126.793 126.427 126.793 126.427C126.793 126.427 131.334 122.377 129.554 119.215C127.773 116.053 123.309 119.991 123.309 119.991Z" fill="#FA7179"/>
</svg>
